<?xml version="1.0" encoding="utf-8"?>
<!-- Generator: Adobe Illustrator 23.0.2, SVG Export Plug-In . SVG Version: 6.00 Build 0)  -->
<svg version="1.1" id="Layer_1" xmlns="http://www.w3.org/2000/svg" xmlns:xlink="http://www.w3.org/1999/xlink" x="0px" y="0px"
	 viewBox="0 0 48 48" style="enable-background:new 0 0 48 48;" xml:space="preserve">
<style type="text/css">
	.st0{fill:#276EF1;}
	.st1{fill:#A0BFF9;}
	.st2{fill:#FFFFFF;}
</style>
<path class="st0" d="M17.8,26.2L5.7,38H4.1l-1.5-1.4v-1.5l12.1-11.7L17.8,26.2z"/>
<path class="st0" d="M45.3,22.2v-9.4c0-2.2-1.9-4-4.2-4h-11c-2.3,0-4.2,1.8-4.2,4v9.4c0,5.2,4.3,9.4,9.6,9.4
	C41,31.5,45.3,27.4,45.3,22.2z"/>
<path class="st1" d="M35.7,31.5c-0.7,0-1.5-0.1-2.1-0.3v14.3l1.1,1.1h2.1l1.1-1.1V31.3C37.2,31.4,36.4,31.5,35.7,31.5z"/>
<path class="st1" d="M40.4,3.2c-2.6-2.5-6.9-2.5-9.5,0c-1.1,1.1-1.8,2.4-1.9,3.9l1.7,1.7h0.1c-0.1-0.3-0.1-0.7-0.1-1
	c0-1.3,0.5-2.5,1.5-3.4c1.9-1.9,5.1-1.9,7,0c1.9,1.9,1.9,5,0,6.8c-1.5,1.5-3.9,1.8-5.8,0.9c-0.4-0.2-0.9-0.1-1.1,0.4
	c-0.2,0.4-0.1,0.9,0.4,1.1c1,0.5,2,0.7,3.1,0.7c1.7,0,3.4-0.7,4.7-1.9C43,9.9,43,5.8,40.4,3.2z"/>
<path class="st1" d="M35.7,26.8c1,0,1.9-0.8,1.9-1.8c0-1-0.8-1.8-1.9-1.8c-1,0-1.9,0.8-1.9,1.8C33.8,26,34.7,26.8,35.7,26.8z"/>
<path d="M26.1,22.2v-9.4c0-2.2,1.9-4,4.2-4h0.6l-2.6-2.4c-1.4-1.4-3.4-1.7-4.7-0.8c-4.5,3-8.3,6.9-11.1,11.5l-0.1,0.2
	c-0.8,1.3-0.5,3.2,0.8,4.4l6.3,6.1c1.4,1.3,3.3,1.6,4.6,0.8l0.2-0.1c1-0.6,2-1.3,3-1.9C26.4,25.3,26.1,23.8,26.1,22.2z"/>
<path d="M32.5,22.4c1,0,1.9-0.8,1.9-1.8c0-1-0.8-1.8-1.9-1.8c-1,0-1.9,0.8-1.9,1.8C30.6,21.6,31.5,22.4,32.5,22.4z"/>
<path class="st2" d="M21.2,20c1.4,1.4,1.4,3.5,0,4.9L16.1,20C17.5,18.7,19.8,18.7,21.2,20z"/>
<path class="st2" d="M38.9,22.4c1,0,1.9-0.8,1.9-1.8c0-1-0.8-1.8-1.9-1.8c-1,0-1.9,0.8-1.9,1.8C37,21.6,37.8,22.4,38.9,22.4z"/>
</svg>
